# xmcd
#
# Track frame offsets:
#	150
#	19009
#	33326
#	47761
#	63748
#	77501
#	93877
#	106750
#	120402
#	134381
#	148107
#	161364
#	180091
#	197613
#
# Disc length: 2849 seconds
#
# Revision: 2
# Processed by: cddbd v1.5.1PL2 Copyright (c) Steve Scherf et al.
# Submitted via: audiograbber 1.83.01
#
DISCID=a80b1f0e
DTITLE=Volker Lechtenbrink - Ich Mag - Seine großen Erfolge
DYEAR=1999
DGENRE=Deutscher Schlager
TTITLE0=Ich mag
TTITLE1=Volker und das Kind
TTITLE2=Der Macher
TTITLE3=Leben so wie ich es mag
TTITLE4=Meine Tür steht immer offen
TTITLE5=Der Spieler
TTITLE6=Ich drück' beide Augen zu
TTITLE7=Hilf mir durch diese Nacht
TTITLE8=Dame und Clown
TTITLE9=Erst drüben die Dame
TTITLE10=Hitch-Hike Baby
TTITLE11=Ich glaube, Oma, du sitzt auf 'ner Wolke
TTITLE12=Irgendwann
TTITLE13=Sally
EXTD=
EXTT0=
EXTT1=
EXTT2=
EXTT3=
EXTT4=
EXTT5=
EXTT6=
EXTT7=
EXTT8=
EXTT9=
EXTT10=
EXTT11=
EXTT12=
EXTT13=
PLAYORDER=
